Coordinates
version=1
nRows=5
nColumns=63
inDegrees=yes

Units are S.I. units (second, meters, Newtons, ...)
If the header above contains a line with 'inDegrees', this indicates whether rotational values are in degrees (yes) or radians (no).

endheader
time	pelvis_tilt	pelvis_list	pelvis_rotation	pelvis_tx	pelvis_ty	pelvis_tz	hip_flexion_r	hip_adduction_r	hip_rotation_r	knee_angle_r	knee_angle_r_beta	ankle_angle_r	subtalar_angle_r	mtp_angle_r	hip_flexion_l	hip_adduction_l	hip_rotation_l	knee_angle_l	knee_angle_l_beta	ankle_angle_l	subtalar_angle_l	mtp_angle_l	L5_S1_Flex_Ext	L5_S1_Lat_Bending	L5_S1_axial_rotation	L4_L5_Flex_Ext	L4_L5_Lat_Bending	L4_L5_axial_rotation	L3_L4_Flex_Ext	L3_L4_Lat_Bending	L3_L4_axial_rotation	L2_L3_Flex_Ext	L2_L3_Lat_Bending	L2_L3_axial_rotation	L1_L2_Flex_Ext	L1_L2_Lat_Bending	L1_L2_axial_rotation	L1_T12_Flex_Ext	L1_T12_Lat_Bending	L1_T12_axial_rotation	Abs_r3	Abs_r2	Abs_r1	Abs_t1	Abs_t2	neck_flexion	neck_bending	neck_rotation	arm_flex_r	arm_add_r	arm_rot_r	elbow_flex_r	pro_sup_r	wrist_flex_r	wrist_dev_r	arm_flex_l	arm_add_l	arm_rot_l	elbow_flex_l	pro_sup_l	wrist_flex_l	wrist_dev_l
      3.90000000	     -2.13785489	      6.41376824	    -21.26215891	      0.97543638	      0.88621811	      0.40546570	    -27.62521301	      2.27846531	     19.07464605	     17.28661623	      0.30170837	    -88.45892871	      7.13504875	      0.00000000	    -19.27375555	      7.14556503	      4.84647181	     29.85190122	      0.52101396	    -89.83734437	     -2.58853797	      0.00000000	     -0.06443392	     -0.41929731	      1.76898443	     -0.11966024	     -0.55766543	      1.87954595	     -0.10585849	     -1.01947949	      1.87954595	     -0.07364153	     -1.01947949	      1.54786137	     -0.05983334	     -0.85503108	      1.43729985	     -0.03681754	     -0.64949154	      1.32673832	     -0.46024506	     -4.74317508	      9.83856069	      0.00000000	      0.00000000	     -0.00000000	      0.00000000	      0.00000000	     34.88766885	    -15.79626061	     45.43575233	     41.21845863	     38.31600495	      0.00000000	      5.00000014	    -29.37592391	    -10.47228206	    -10.66833997	     61.20337135	     68.36033642	      0.00000000	      5.00000014
      3.93333333	     -2.78341822	      6.64474252	    -25.22983278	      1.00542221	      0.87826541	      0.41009077	    -28.76039540	     -0.35843433	     23.24286924	     16.22544628	      0.28318746	    -87.62192721	      7.13335151	      0.00000000	    -17.92415006	      8.62919453	      1.90310951	     30.36290334	      0.52993263	    -90.29882377	     -0.22396783	      0.00000000	     -0.06946539	     -0.45186415	      2.52912881	     -0.12900418	     -0.60097932	      2.68719936	     -0.11412470	     -1.09866249	      2.68719936	     -0.07939200	     -1.09866249	      2.21298770	     -0.06450557	     -0.92144137	      2.05491715	     -0.03969253	     -0.69993756	      1.89684660	     -0.49618437	     -5.11157761	     14.06625568	      0.00000000	      0.00000000	     -0.00000000	      0.00000000	      0.00000000	     39.46993076	    -16.71207598	     47.59707279	     42.81211754	     38.70894970	      0.00000000	      5.00000014	    -29.57710307	     -8.56699174	    -15.69442147	     60.43771273	     67.97486345	      0.00000000	      5.00000014
      3.96666667	     -3.38533679	      6.75115043	    -28.99386979	      1.03636546	      0.86842410	      0.41362914	    -29.75581205	     -3.02851860	     26.77526691	     15.34486850	      0.26781848	    -86.86346318	      6.91265804	      0.00000000	    -16.91477318	      9.88515408	     -1.01426890	     30.78277028	      0.53726069	    -90.37870125	      1.78660665	      0.00000000	     -0.07783211	     -0.46978246	      3.20414432	     -0.14454201	     -0.62481067	      3.40440334	     -0.12787037	     -1.14222907	      3.40440334	     -0.08895432	     -1.14222907	      2.80362628	     -0.07227490	     -0.95798039	      2.60336726	     -0.04447327	     -0.72769303	      2.40310824	     -0.55594698	     -5.31427315	     17.82048944	      0.00000000	      0.00000000	     -0.00000000	      0.00000000	      0.00000000	     43.54101228	    -17.46674461	     49.37100671	     44.57701552	     39.13709220	      0.00000000	      5.00000014	    -28.91069501	     -5.99466201	    -22.20608349	     59.08434410	     67.57550545	      0.00000000	      5.00000014
      4.00000000	     -3.99398178	      6.77141228	    -32.43042034	      1.06875942	      0.85718794	      0.41586458	    -30.57653408	     -5.64989784	     29.59887994	     14.65139026	      0.25571500	    -86.13535907	      6.47134937	      0.00000000	    -16.31471216	     11.02074709	     -3.81327631	     31.00479955	      0.54113584	    -90.17477466	      3.23256781	      0.00000000	     -0.08753314	     -0.47215555	      3.75269436	     -0.16255779	     -0.62796689	      3.98723776	     -0.14380819	     -1.14799902	      3.98723776	     -0.10004162	     -1.14799902	      3.28360757	     -0.08128327	     -0.96281961	      3.04906417	     -0.05001644	     -0.73136895	      2.81452077	     -0.62524046	     -5.34111807	     20.87136024	      0.00000000	      0.00000000	     -0.00000000	      0.00000000	      0.00000000	     47.06319612	    -17.38279618	     50.00373460	     45.74928610	     39.51613165	      0.00000000	      5.00000014	    -27.34886517	     -2.49159636	    -31.06741808	     57.45443920	     67.19857104	      0.00000000	      5.00000014
      4.03333333	     -4.61099659	      6.75545302	    -35.39922300	      1.10286321	      0.84541201	      0.41666829	    -31.23077771	     -8.13652682	     31.70083838	     14.15411566	      0.24703592	    -85.32203005	      5.90516330	      0.00000000	    -16.17102090	     12.20098899	     -6.19115527	     30.87428436	      0.53885792	    -89.75422734	      4.14901798	      0.00000000	     -0.09746651	     -0.46416428	      4.15723870	     -0.18100506	     -0.61733850	      4.41706612	     -0.16012773	     -1.12856904	      4.41706612	     -0.11139448	     -1.12856904	      3.63758386	     -0.09050740	     -0.94652381	      3.37775644	     -0.05569237	     -0.71899047	      3.11792902	     -0.69619356	     -5.25071920	     23.12131447	      0.00000000	      0.00000000	     -0.00000000	      0.00000000	      0.00000000	     49.77346442	    -16.41615787	     49.60861775	     46.24232960	     39.77740935	      0.00000000	      5.00000014	    -24.76519579	      1.47556539	    -42.06861510	     56.06619090	     66.82809693	      0.00000000	      5.00000014
